<mxfile host="app.diagrams.net" agent="Mozilla/5.0 (Windows NT 10.0; Win64; x64) AppleWebKit/537.36 (KHTML, like Gecko) Chrome/133.0.0.0 Safari/537.36" version="26.0.16">
  <diagram name="Страница — 1" id="YeGSmbcJ4_aWISAFmARb">
    <mxGraphModel dx="2327" dy="757" grid="1" gridSize="10" guides="1" tooltips="1" connect="1" arrows="1" fold="1" page="1" pageScale="1" pageWidth="827" pageHeight="1169" math="0" shadow="0">
      <root>
        <mxCell id="0" />
        <mxCell id="1" parent="0" />
        <mxCell id="FkayFeMpXyBMqayaDGR8-50" style="edgeStyle=orthogonalEdgeStyle;rounded=0;orthogonalLoop=1;jettySize=auto;html=1;exitX=1;exitY=0.3333333333333333;exitDx=0;exitDy=0;exitPerimeter=0;entryX=0.5;entryY=0;entryDx=0;entryDy=0;" parent="1" source="FkayFeMpXyBMqayaDGR8-1" target="FkayFeMpXyBMqayaDGR8-20" edge="1">
          <mxGeometry relative="1" as="geometry" />
        </mxCell>
        <mxCell id="FkayFeMpXyBMqayaDGR8-51" style="edgeStyle=orthogonalEdgeStyle;rounded=0;orthogonalLoop=1;jettySize=auto;html=1;exitX=0;exitY=0.3333333333333333;exitDx=0;exitDy=0;exitPerimeter=0;entryX=0.5;entryY=0;entryDx=0;entryDy=0;" parent="1" source="FkayFeMpXyBMqayaDGR8-1" target="FkayFeMpXyBMqayaDGR8-19" edge="1">
          <mxGeometry relative="1" as="geometry" />
        </mxCell>
        <mxCell id="FkayFeMpXyBMqayaDGR8-1" value="&lt;font style=&quot;vertical-align: inherit;&quot;&gt;&lt;font style=&quot;vertical-align: inherit;&quot;&gt;Врач&lt;/font&gt;&lt;/font&gt;" style="shape=umlActor;verticalLabelPosition=bottom;verticalAlign=top;html=1;outlineConnect=0;" parent="1" vertex="1">
          <mxGeometry x="90" y="480" width="30" height="60" as="geometry" />
        </mxCell>
        <mxCell id="FkayFeMpXyBMqayaDGR8-26" style="edgeStyle=orthogonalEdgeStyle;rounded=0;orthogonalLoop=1;jettySize=auto;html=1;exitX=0;exitY=0.3333333333333333;exitDx=0;exitDy=0;exitPerimeter=0;entryX=0.5;entryY=0;entryDx=0;entryDy=0;" parent="1" source="FkayFeMpXyBMqayaDGR8-2" target="FkayFeMpXyBMqayaDGR8-8" edge="1">
          <mxGeometry relative="1" as="geometry" />
        </mxCell>
        <mxCell id="FkayFeMpXyBMqayaDGR8-29" style="edgeStyle=orthogonalEdgeStyle;rounded=0;orthogonalLoop=1;jettySize=auto;html=1;exitX=1;exitY=0.3333333333333333;exitDx=0;exitDy=0;exitPerimeter=0;entryX=0.5;entryY=0;entryDx=0;entryDy=0;" parent="1" source="FkayFeMpXyBMqayaDGR8-2" target="FkayFeMpXyBMqayaDGR8-16" edge="1">
          <mxGeometry relative="1" as="geometry" />
        </mxCell>
        <mxCell id="FkayFeMpXyBMqayaDGR8-30" style="edgeStyle=orthogonalEdgeStyle;rounded=0;orthogonalLoop=1;jettySize=auto;html=1;exitX=1;exitY=0.3333333333333333;exitDx=0;exitDy=0;exitPerimeter=0;entryX=0.5;entryY=1;entryDx=0;entryDy=0;" parent="1" source="FkayFeMpXyBMqayaDGR8-2" target="FkayFeMpXyBMqayaDGR8-11" edge="1">
          <mxGeometry relative="1" as="geometry" />
        </mxCell>
        <mxCell id="FkayFeMpXyBMqayaDGR8-31" style="edgeStyle=orthogonalEdgeStyle;rounded=0;orthogonalLoop=1;jettySize=auto;html=1;exitX=0;exitY=0.3333333333333333;exitDx=0;exitDy=0;exitPerimeter=0;entryX=0.5;entryY=1;entryDx=0;entryDy=0;" parent="1" source="FkayFeMpXyBMqayaDGR8-2" target="FkayFeMpXyBMqayaDGR8-17" edge="1">
          <mxGeometry relative="1" as="geometry" />
        </mxCell>
        <mxCell id="FkayFeMpXyBMqayaDGR8-2" value="&lt;font style=&quot;vertical-align: inherit;&quot;&gt;&lt;font style=&quot;vertical-align: inherit;&quot;&gt;Пациент&lt;/font&gt;&lt;/font&gt;" style="shape=umlActor;verticalLabelPosition=bottom;verticalAlign=top;html=1;outlineConnect=0;" parent="1" vertex="1">
          <mxGeometry x="-60" y="180" width="30" height="60" as="geometry" />
        </mxCell>
        <mxCell id="FkayFeMpXyBMqayaDGR8-39" style="edgeStyle=orthogonalEdgeStyle;rounded=0;orthogonalLoop=1;jettySize=auto;html=1;exitX=1;exitY=0.3333333333333333;exitDx=0;exitDy=0;exitPerimeter=0;entryX=0.5;entryY=1;entryDx=0;entryDy=0;" parent="1" source="FkayFeMpXyBMqayaDGR8-5" target="FkayFeMpXyBMqayaDGR8-15" edge="1">
          <mxGeometry relative="1" as="geometry" />
        </mxCell>
        <mxCell id="FkayFeMpXyBMqayaDGR8-40" style="edgeStyle=orthogonalEdgeStyle;rounded=0;orthogonalLoop=1;jettySize=auto;html=1;exitX=1;exitY=0.3333333333333333;exitDx=0;exitDy=0;exitPerimeter=0;entryX=0.5;entryY=0;entryDx=0;entryDy=0;" parent="1" source="FkayFeMpXyBMqayaDGR8-5" target="FkayFeMpXyBMqayaDGR8-13" edge="1">
          <mxGeometry relative="1" as="geometry" />
        </mxCell>
        <mxCell id="FkayFeMpXyBMqayaDGR8-41" style="edgeStyle=orthogonalEdgeStyle;rounded=0;orthogonalLoop=1;jettySize=auto;html=1;exitX=0;exitY=0.3333333333333333;exitDx=0;exitDy=0;exitPerimeter=0;entryX=0.5;entryY=0;entryDx=0;entryDy=0;" parent="1" source="FkayFeMpXyBMqayaDGR8-5" target="FkayFeMpXyBMqayaDGR8-12" edge="1">
          <mxGeometry relative="1" as="geometry" />
        </mxCell>
        <mxCell id="FkayFeMpXyBMqayaDGR8-5" value="&lt;font style=&quot;vertical-align: inherit;&quot;&gt;&lt;font style=&quot;vertical-align: inherit;&quot;&gt;Администратор&lt;/font&gt;&lt;/font&gt;" style="shape=umlActor;verticalLabelPosition=bottom;verticalAlign=top;html=1;outlineConnect=0;" parent="1" vertex="1">
          <mxGeometry x="290" y="180" width="30" height="60" as="geometry" />
        </mxCell>
        <mxCell id="FkayFeMpXyBMqayaDGR8-34" style="edgeStyle=orthogonalEdgeStyle;rounded=0;orthogonalLoop=1;jettySize=auto;html=1;exitX=0;exitY=0.5;exitDx=0;exitDy=0;entryX=0.5;entryY=0;entryDx=0;entryDy=0;dashed=1;" parent="1" source="FkayFeMpXyBMqayaDGR8-8" target="FkayFeMpXyBMqayaDGR8-10" edge="1">
          <mxGeometry relative="1" as="geometry" />
        </mxCell>
        <mxCell id="FkayFeMpXyBMqayaDGR8-36" value="extend" style="edgeLabel;html=1;align=center;verticalAlign=middle;resizable=0;points=[];" parent="FkayFeMpXyBMqayaDGR8-34" vertex="1" connectable="0">
          <mxGeometry x="0.1855" relative="1" as="geometry">
            <mxPoint y="17" as="offset" />
          </mxGeometry>
        </mxCell>
        <mxCell id="FkayFeMpXyBMqayaDGR8-35" style="edgeStyle=orthogonalEdgeStyle;rounded=0;orthogonalLoop=1;jettySize=auto;html=1;exitX=1;exitY=0.5;exitDx=0;exitDy=0;entryX=0.5;entryY=0;entryDx=0;entryDy=0;dashed=1;" parent="1" source="FkayFeMpXyBMqayaDGR8-8" target="FkayFeMpXyBMqayaDGR8-9" edge="1">
          <mxGeometry relative="1" as="geometry" />
        </mxCell>
        <mxCell id="FkayFeMpXyBMqayaDGR8-37" value="include" style="edgeLabel;html=1;align=center;verticalAlign=middle;resizable=0;points=[];" parent="FkayFeMpXyBMqayaDGR8-35" vertex="1" connectable="0">
          <mxGeometry x="0.0769" y="-3" relative="1" as="geometry">
            <mxPoint x="3" y="24" as="offset" />
          </mxGeometry>
        </mxCell>
        <mxCell id="FkayFeMpXyBMqayaDGR8-8" value="&lt;span style=&quot;font-size: 11pt; line-height: 107%; font-family: Calibri, sans-serif;&quot;&gt;Записаться&lt;br/&gt;на прием&lt;/span&gt;&lt;span style=&quot;font-size:11.0pt;line-height:107%;&lt;br/&gt;font-family:&amp;quot;Calibri&amp;quot;,sans-serif;mso-ascii-theme-font:minor-latin;mso-fareast-font-family:&lt;br/&gt;Calibri;mso-fareast-theme-font:minor-latin;mso-hansi-theme-font:minor-latin;&lt;br/&gt;mso-bidi-font-family:&amp;quot;Times New Roman&amp;quot;;mso-bidi-theme-font:minor-bidi;&lt;br/&gt;mso-ansi-language:RU;mso-fareast-language:EN-US;mso-bidi-language:AR-SA&quot;&gt;&lt;/span&gt;" style="ellipse;whiteSpace=wrap;html=1;" parent="1" vertex="1">
          <mxGeometry x="-200" y="270" width="120" height="80" as="geometry" />
        </mxCell>
        <mxCell id="FkayFeMpXyBMqayaDGR8-9" value="Получить уведомление о записи" style="ellipse;whiteSpace=wrap;html=1;" parent="1" vertex="1">
          <mxGeometry x="-100" y="390" width="120" height="80" as="geometry" />
        </mxCell>
        <mxCell id="FkayFeMpXyBMqayaDGR8-10" value="Отменить или перенести запись" style="ellipse;whiteSpace=wrap;html=1;" parent="1" vertex="1">
          <mxGeometry x="-300" y="390" width="120" height="80" as="geometry" />
        </mxCell>
        <mxCell id="FkayFeMpXyBMqayaDGR8-11" value="Просмотр истории посещений&amp;nbsp;" style="ellipse;whiteSpace=wrap;html=1;" parent="1" vertex="1">
          <mxGeometry x="10" y="80" width="120" height="80" as="geometry" />
        </mxCell>
        <mxCell id="FkayFeMpXyBMqayaDGR8-43" style="edgeStyle=orthogonalEdgeStyle;rounded=0;orthogonalLoop=1;jettySize=auto;html=1;exitX=0.5;exitY=1;exitDx=0;exitDy=0;entryX=0.5;entryY=0;entryDx=0;entryDy=0;dashed=1;" parent="1" source="FkayFeMpXyBMqayaDGR8-12" target="FkayFeMpXyBMqayaDGR8-22" edge="1">
          <mxGeometry relative="1" as="geometry" />
        </mxCell>
        <mxCell id="FkayFeMpXyBMqayaDGR8-45" value="include" style="edgeLabel;html=1;align=center;verticalAlign=middle;resizable=0;points=[];" parent="FkayFeMpXyBMqayaDGR8-43" vertex="1" connectable="0">
          <mxGeometry x="-0.1889" y="-2" relative="1" as="geometry">
            <mxPoint x="2" y="6" as="offset" />
          </mxGeometry>
        </mxCell>
        <mxCell id="FkayFeMpXyBMqayaDGR8-12" value="Управление записями пациентов" style="ellipse;whiteSpace=wrap;html=1;" parent="1" vertex="1">
          <mxGeometry x="150" y="270" width="120" height="80" as="geometry" />
        </mxCell>
        <mxCell id="FkayFeMpXyBMqayaDGR8-44" style="edgeStyle=orthogonalEdgeStyle;rounded=0;orthogonalLoop=1;jettySize=auto;html=1;exitX=0.5;exitY=1;exitDx=0;exitDy=0;entryX=0.5;entryY=0;entryDx=0;entryDy=0;dashed=1;" parent="1" source="FkayFeMpXyBMqayaDGR8-13" target="FkayFeMpXyBMqayaDGR8-23" edge="1">
          <mxGeometry relative="1" as="geometry" />
        </mxCell>
        <mxCell id="FkayFeMpXyBMqayaDGR8-48" value="include" style="edgeLabel;html=1;align=center;verticalAlign=middle;resizable=0;points=[];" parent="FkayFeMpXyBMqayaDGR8-44" vertex="1" connectable="0">
          <mxGeometry x="-0.29" relative="1" as="geometry">
            <mxPoint y="9" as="offset" />
          </mxGeometry>
        </mxCell>
        <mxCell id="FkayFeMpXyBMqayaDGR8-13" value="Формирование отчетов" style="ellipse;whiteSpace=wrap;html=1;" parent="1" vertex="1">
          <mxGeometry x="340" y="270" width="120" height="80" as="geometry" />
        </mxCell>
        <mxCell id="FkayFeMpXyBMqayaDGR8-15" value="Управление расписанием врачей" style="ellipse;whiteSpace=wrap;html=1;" parent="1" vertex="1">
          <mxGeometry x="290" y="80" width="120" height="80" as="geometry" />
        </mxCell>
        <mxCell id="FkayFeMpXyBMqayaDGR8-16" value="Оставить отзыв" style="ellipse;whiteSpace=wrap;html=1;" parent="1" vertex="1">
          <mxGeometry x="-10" y="270" width="120" height="80" as="geometry" />
        </mxCell>
        <mxCell id="FkayFeMpXyBMqayaDGR8-17" value="Оплата услуг" style="ellipse;whiteSpace=wrap;html=1;" parent="1" vertex="1">
          <mxGeometry x="-220" y="80" width="120" height="80" as="geometry" />
        </mxCell>
        <mxCell id="FkayFeMpXyBMqayaDGR8-19" value="Просмотр медицинской карты пациента" style="ellipse;whiteSpace=wrap;html=1;" parent="1" vertex="1">
          <mxGeometry x="-30" y="570" width="120" height="80" as="geometry" />
        </mxCell>
        <mxCell id="FkayFeMpXyBMqayaDGR8-20" value="Выписать электронный рецепт" style="ellipse;whiteSpace=wrap;html=1;" parent="1" vertex="1">
          <mxGeometry x="120" y="570" width="120" height="80" as="geometry" />
        </mxCell>
        <mxCell id="FkayFeMpXyBMqayaDGR8-22" value="Фильтрация базы пациентов" style="ellipse;whiteSpace=wrap;html=1;" parent="1" vertex="1">
          <mxGeometry x="150" y="390" width="120" height="80" as="geometry" />
        </mxCell>
        <mxCell id="FkayFeMpXyBMqayaDGR8-23" value="&lt;span data-end=&quot;1048&quot; data-start=&quot;1024&quot;&gt;Отчет о прибыльности&lt;/span&gt;" style="ellipse;whiteSpace=wrap;html=1;" parent="1" vertex="1">
          <mxGeometry x="340" y="390" width="120" height="80" as="geometry" />
        </mxCell>
      </root>
    </mxGraphModel>
  </diagram>
</mxfile>
